<svg width="21" height="20" viewBox="0 0 21 20" fill="none" xmlns="http://www.w3.org/2000/svg">
<g id="start icon">
<path id="Vector" d="M16.125 3.75H11.125V1.25C11.125 1.08424 11.0592 0.925268 10.9419 0.808058C10.8247 0.690848 10.6658 0.625 10.5 0.625C10.3342 0.625 10.1753 0.690848 10.0581 0.808058C9.94085 0.925268 9.875 1.08424 9.875 1.25V3.75H4.875C4.21196 3.75 3.57607 4.01339 3.10723 4.48223C2.63839 4.95107 2.375 5.58696 2.375 6.25V15C2.375 15.663 2.63839 16.2989 3.10723 16.7678C3.57607 17.2366 4.21196 17.5 4.875 17.5H16.125C16.788 17.5 17.4239 17.2366 17.8928 16.7678C18.3616 16.2989 18.625 15.663 18.625 15V6.25C18.625 5.58696 18.3616 4.95107 17.8928 4.48223C17.4239 4.01339 16.788 3.75 16.125 3.75ZM17.375 15C17.375 15.3315 17.2433 15.6495 17.0089 15.8839C16.7745 16.1183 16.4565 16.25 16.125 16.25H4.875C4.54348 16.25 4.22554 16.1183 3.99112 15.8839C3.7567 15.6495 3.625 15.3315 3.625 15V6.25C3.625 5.91848 3.7567 5.60054 3.99112 5.36612C4.22554 5.1317 4.54348 5 4.875 5H16.125C16.4565 5 16.7745 5.1317 17.0089 5.36612C17.2433 5.60054 17.375 5.91848 17.375 6.25V15ZM13.3125 10.625H7.6875C7.10734 10.625 6.55094 10.8555 6.1407 11.2657C5.73047 11.6759 5.5 12.2323 5.5 12.8125C5.5 13.3927 5.73047 13.9491 6.1407 14.3593C6.55094 14.7695 7.10734 15 7.6875 15H13.3125C13.8927 15 14.4491 14.7695 14.8593 14.3593C15.2695 13.9491 15.5 13.3927 15.5 12.8125C15.5 12.2323 15.2695 11.6759 14.8593 11.2657C14.4491 10.8555 13.8927 10.625 13.3125 10.625ZM11.125 11.875V13.75H9.875V11.875H11.125ZM6.75 12.8125C6.75 12.5639 6.84877 12.3254 7.02459 12.1496C7.2004 11.9738 7.43886 11.875 7.6875 11.875H8.625V13.75H7.6875C7.43886 13.75 7.2004 13.6512 7.02459 13.4754C6.84877 13.2996 6.75 13.0611 6.75 12.8125ZM13.3125 13.75H12.375V11.875H13.3125C13.5611 11.875 13.7996 11.9738 13.9754 12.1496C14.1512 12.3254 14.25 12.5639 14.25 12.8125C14.25 13.0611 14.1512 13.2996 13.9754 13.4754C13.7996 13.6512 13.5611 13.75 13.3125 13.75ZM6.125 8.4375C6.125 8.25208 6.17998 8.07082 6.283 7.91665C6.38601 7.76248 6.53243 7.64232 6.70373 7.57136C6.87504 7.50041 7.06354 7.48184 7.2454 7.51801C7.42725 7.55419 7.5943 7.64348 7.72541 7.77459C7.85652 7.9057 7.94581 8.07275 7.98199 8.2546C8.01816 8.43646 7.99959 8.62496 7.92864 8.79627C7.85768 8.96757 7.73752 9.11399 7.58335 9.217C7.42918 9.32002 7.24792 9.375 7.0625 9.375C6.81386 9.375 6.5754 9.27623 6.39959 9.10041C6.22377 8.9246 6.125 8.68614 6.125 8.4375ZM13 8.4375C13 8.25208 13.055 8.07082 13.158 7.91665C13.261 7.76248 13.4074 7.64232 13.5787 7.57136C13.75 7.50041 13.9385 7.48184 14.1204 7.51801C14.3023 7.55419 14.4693 7.64348 14.6004 7.77459C14.7315 7.9057 14.8208 8.07275 14.857 8.2546C14.8932 8.43646 14.8746 8.62496 14.8036 8.79627C14.7327 8.96757 14.6125 9.11399 14.4583 9.217C14.3042 9.32002 14.1229 9.375 13.9375 9.375C13.6889 9.375 13.4504 9.27623 13.2746 9.10041C13.0988 8.9246 13 8.68614 13 8.4375Z" fill="#1F2937"/>
</g>
</svg>
