<svg width="24" height="24" viewBox="0 0 24 24" fill="none" xmlns="http://www.w3.org/2000/svg">
<g id="AirplaneTakeoff">
<path id="Vector" d="M16.5 20.2502C16.5 20.4491 16.421 20.6399 16.2803 20.7805C16.1397 20.9212 15.9489 21.0002 15.75 21.0002H2.25C2.05109 21.0002 1.86033 20.9212 1.71967 20.7805C1.57902 20.6399 1.5 20.4491 1.5 20.2502C1.5 20.0513 1.57902 19.8605 1.71967 19.7198C1.86033 19.5792 2.05109 19.5002 2.25 19.5002H15.75C15.9489 19.5002 16.1397 19.5792 16.2803 19.7198C16.421 19.8605 16.5 20.0513 16.5 20.2502ZM23.2369 8.73299C23.2173 8.83738 23.1757 8.9364 23.1149 9.02352C23.0541 9.11063 22.9756 9.18384 22.8844 9.2383L9.06469 17.4883C8.48863 17.8261 7.83312 18.0047 7.16532 18.0058C6.21405 18.0047 5.29915 17.6402 4.60782 16.9867L4.59657 16.9755L1.21875 13.6689C1.04004 13.4992 0.905892 13.2881 0.828181 13.0542C0.750469 12.8203 0.731586 12.5709 0.773201 12.328C0.814815 12.085 0.915645 11.8561 1.06677 11.6614C1.2179 11.4667 1.41468 11.3123 1.63969 11.2117L1.92094 11.0739C2.09856 10.9867 2.30343 10.9733 2.49094 11.0364L5.14032 11.9308L7.03125 10.7871L4.98469 8.80049C4.80064 8.63093 4.66194 8.41801 4.58122 8.18113C4.5005 7.94426 4.48033 7.69095 4.52254 7.44428C4.56476 7.19761 4.66802 6.96543 4.82291 6.76887C4.97781 6.57232 5.17942 6.41764 5.40938 6.31893L5.43938 6.30674L6.10969 6.05268C6.2787 5.98966 6.46475 5.98966 6.63375 6.05268L11.6906 7.9108L16.5253 5.02518C17.2958 4.56664 18.2055 4.40069 19.0882 4.55768C19.971 4.71467 20.7677 5.18411 21.3328 5.88018L21.3441 5.89424L23.0916 8.13393C23.1568 8.21779 23.2036 8.31456 23.2286 8.41784C23.2537 8.52112 23.2565 8.62854 23.2369 8.73299ZM21.3863 8.38612L20.1675 6.8233C19.8283 6.40833 19.3515 6.12883 18.8237 6.03559C18.2959 5.94235 17.7521 6.04155 17.2913 6.31518L12.1538 9.38268C12.0575 9.43973 11.9498 9.47471 11.8385 9.48508C11.7271 9.49546 11.6148 9.48097 11.5097 9.44268L6.375 7.55455L6 7.69799L6.01969 7.71674L8.77219 10.3877C8.85439 10.4676 8.9172 10.5652 8.95578 10.6731C8.99435 10.7811 9.00768 10.8964 8.99474 11.0103C8.98179 11.1242 8.94292 11.2336 8.8811 11.3301C8.81928 11.4266 8.73616 11.5077 8.63813 11.5671L5.61844 13.3942C5.52503 13.4507 5.42042 13.486 5.31194 13.4978C5.20345 13.5097 5.09369 13.4977 4.99032 13.4627L2.3025 12.5561L2.28469 12.5655L2.25 12.5814C2.25452 12.5847 2.25861 12.5884 2.26219 12.5927L5.63719 15.8983C5.98941 16.2293 6.4394 16.4372 6.91974 16.491C7.40008 16.5447 7.8849 16.4414 8.30157 16.1964L21.3863 8.38612Z" fill="#6B7280"/>
</g>
</svg>
