<svg width="34" height="15" viewBox="0 0 34 15" fill="none" xmlns="http://www.w3.org/2000/svg">
<path fill-rule="evenodd" clip-rule="evenodd" d="M6.69641 2.12389C6.30965 2.59308 5.69083 2.96315 5.07201 2.91029C4.99466 2.27588 5.29762 1.60182 5.65216 1.18549C6.03892 0.703079 6.71575 0.359441 7.26367 0.333008C7.32813 0.993848 7.07673 1.64147 6.69641 2.12389ZM7.25717 3.03584C6.712 3.00367 6.21456 3.20392 5.81276 3.36567C5.55419 3.46976 5.33524 3.5579 5.16866 3.5579C4.98172 3.5579 4.75372 3.46505 4.49773 3.36079C4.1623 3.22418 3.77881 3.068 3.37666 3.07549C2.45487 3.08871 1.59755 3.62399 1.12699 4.47647C0.160085 6.18144 0.875595 8.70585 1.81027 10.0936C2.26794 10.7809 2.81585 11.5342 3.53781 11.5078C3.85543 11.4955 4.0839 11.3961 4.32035 11.2933C4.59257 11.1748 4.87536 11.0518 5.31691 11.0518C5.74316 11.0518 6.01358 11.1716 6.27317 11.2867C6.52 11.396 6.75703 11.501 7.10891 11.4946C7.85665 11.4814 8.32721 10.8073 8.78488 10.12C9.27878 9.38241 9.49582 8.66252 9.52876 8.55327L9.53262 8.54064C9.53183 8.53983 9.52574 8.53697 9.51499 8.53192L9.51497 8.53191C9.34986 8.45442 8.08792 7.86215 8.07582 6.27396C8.06367 4.94089 9.07676 4.26548 9.23624 4.15916L9.23626 4.15914C9.24595 4.15268 9.25249 4.14832 9.25544 4.14605C8.61084 3.16801 7.60526 3.06227 7.25717 3.03584ZM12.4334 11.4219V1.1194H16.2043C18.151 1.1194 19.5111 2.49395 19.5111 4.5029C19.5111 6.51185 18.1252 7.89962 16.1528 7.89962H13.9933V11.4219H12.4334ZM13.9932 2.46751H15.7916C17.1453 2.46751 17.9188 3.20765 17.9188 4.50951C17.9188 5.81136 17.1453 6.55811 15.7852 6.55811H13.9932V2.46751ZM24.6616 10.1861C24.2491 10.9924 23.3402 11.5012 22.3604 11.5012C20.91 11.5012 19.898 10.6157 19.898 9.28078C19.898 7.9591 20.8778 7.19913 22.6891 7.08679L24.6358 6.96784V6.39952C24.6358 5.56025 24.1008 5.10427 23.1468 5.10427C22.3604 5.10427 21.7867 5.5206 21.6706 6.15501H20.2654C20.3105 4.82011 21.5353 3.84868 23.1919 3.84868C24.9775 3.84868 26.1377 4.8069 26.1377 6.29378V11.4219H24.6938V10.1861H24.6616ZM22.7792 10.2787C21.9477 10.2787 21.4191 9.86893 21.4191 9.24113C21.4191 8.59351 21.9284 8.21683 22.9017 8.15736L24.6357 8.04501V8.62655C24.6357 9.59138 23.8364 10.2787 22.7792 10.2787ZM30.9271 11.825C30.3018 13.6291 29.5863 14.2239 28.065 14.2239C27.949 14.2239 27.5623 14.2107 27.472 14.1842V12.9485C27.5687 12.9617 27.8072 12.9749 27.9297 12.9749C28.6194 12.9749 29.0062 12.6775 29.2447 11.9043L29.3865 11.4483L26.7436 3.94781H28.3745L30.2116 10.0341H30.2438L32.0809 3.94781H33.6667L30.9271 11.825Z" fill="black"/>
</svg>
