<svg width="24" height="24" viewBox="0 0 24 24" fill="none" xmlns="http://www.w3.org/2000/svg">
<g id="&#226;&#156;&#179;&#239;&#184;&#143; start icon">
<path id="Vector" d="M6.7501 12C6.75547 13.9673 6.30088 15.9087 5.4226 17.6691C5.38068 17.7603 5.32085 17.8423 5.24667 17.91C5.17249 17.9777 5.08546 18.0298 4.99075 18.0632C4.89605 18.0967 4.79559 18.1107 4.69534 18.1046C4.59509 18.0985 4.49709 18.0723 4.40715 18.0276C4.31722 17.9829 4.23718 17.9205 4.17179 17.8443C4.1064 17.7681 4.05699 17.6795 4.02649 17.5838C3.99598 17.4881 3.98501 17.3872 3.99422 17.2872C4.00343 17.1872 4.03264 17.0901 4.0801 17.0016C4.85448 15.4483 5.25513 13.7356 5.2501 12C5.24834 10.9879 5.47505 9.98848 5.91333 9.07622C6.35161 8.16395 6.99015 7.36237 7.78135 6.73125C7.93663 6.60693 8.13493 6.54938 8.33264 6.57127C8.53034 6.59316 8.71125 6.69269 8.83557 6.84797C8.95989 7.00324 9.01744 7.20155 8.99555 7.39925C8.97366 7.59696 8.87413 7.77787 8.71885 7.90219C8.10333 8.39291 7.60659 9.01631 7.26569 9.72587C6.92479 10.4354 6.74855 11.2128 6.7501 12ZM12.0001 11.25C11.8012 11.25 11.6104 11.329 11.4698 11.4697C11.3291 11.6103 11.2501 11.8011 11.2501 12C11.25 14.922 10.508 17.7961 9.09385 20.3531C8.99738 20.5272 8.974 20.7324 9.02885 20.9237C9.08371 21.115 9.21231 21.2767 9.38635 21.3731C9.5604 21.4696 9.76565 21.493 9.95693 21.4381C10.1482 21.3833 10.3099 21.2547 10.4064 21.0806C11.9435 18.3009 12.7499 15.1764 12.7501 12C12.7501 11.8011 12.6711 11.6103 12.5304 11.4697C12.3898 11.329 12.199 11.25 12.0001 11.25ZM12.0001 8.25C11.0055 8.25 10.0517 8.64509 9.34845 9.34835C8.64519 10.0516 8.2501 11.0054 8.2501 12C8.2501 12.1989 8.32912 12.3897 8.46977 12.5303C8.61043 12.671 8.80119 12.75 9.0001 12.75C9.19902 12.75 9.38978 12.671 9.53043 12.5303C9.67109 12.3897 9.7501 12.1989 9.7501 12C9.7501 11.4033 9.98716 10.831 10.4091 10.409C10.8311 9.98705 11.4034 9.75 12.0001 9.75C12.5968 9.75 13.1691 9.98705 13.5911 10.409C14.0131 10.831 14.2501 11.4033 14.2501 12C14.2579 14.9821 13.601 17.9285 12.3273 20.625C12.2852 20.7143 12.2612 20.811 12.2565 20.9097C12.2519 21.0083 12.2667 21.1068 12.3001 21.1997C12.3335 21.2926 12.3849 21.378 12.4514 21.451C12.5178 21.524 12.598 21.5833 12.6873 21.6253C12.7766 21.6674 12.8733 21.6914 12.9719 21.6961C13.0706 21.7007 13.1691 21.6859 13.262 21.6525C13.3549 21.6191 13.4403 21.5677 13.5133 21.5012C13.5863 21.4348 13.6456 21.3546 13.6876 21.2653C15.0548 18.3684 15.7594 15.2033 15.7501 12C15.7501 11.0054 15.355 10.0516 14.6518 9.34835C13.9485 8.64509 12.9947 8.25 12.0001 8.25ZM12.0001 2.25C9.41508 2.25273 6.93672 3.28084 5.10883 5.10872C3.28094 6.93661 2.25283 9.41498 2.2501 12C2.2515 12.9366 2.09297 13.8665 1.78135 14.7497C1.71509 14.9373 1.72607 15.1435 1.81186 15.323C1.89766 15.5025 2.05125 15.6406 2.23885 15.7069C2.42645 15.7731 2.63269 15.7622 2.8122 15.6764C2.99171 15.5906 3.12978 15.437 3.19604 15.2494C3.56399 14.2056 3.75136 13.1067 3.7501 12C3.7501 9.81196 4.6193 7.71354 6.16647 6.16637C7.71365 4.61919 9.81207 3.75 12.0001 3.75C14.1881 3.75 16.2866 4.61919 17.8337 6.16637C19.3809 7.71354 20.2501 9.81196 20.2501 12C20.2505 13.7136 20.0844 15.4232 19.7542 17.1047C19.7351 17.2013 19.7352 17.3008 19.7545 17.3974C19.7739 17.494 19.8121 17.5858 19.8669 17.6677C19.9218 17.7495 19.9922 17.8197 20.0742 17.8743C20.1562 17.929 20.2481 17.9669 20.3448 17.9859C20.3927 17.9952 20.4413 17.9999 20.4901 18C20.6637 17.9998 20.8318 17.9394 20.9658 17.8292C21.0998 17.7189 21.1915 17.5656 21.2251 17.3953C21.5744 15.6181 21.7502 13.8112 21.7501 12C21.7471 9.41505 20.7189 6.93683 18.8911 5.109C17.0633 3.28116 14.5851 2.25298 12.0001 2.25ZM8.8501 14.2659C8.65559 14.2272 8.45367 14.2672 8.28851 14.377C8.12336 14.4868 8.00843 14.6575 7.96885 14.8519C7.66453 16.3497 7.11967 17.7883 6.35542 19.1119C6.25596 19.2842 6.22903 19.4889 6.28054 19.6811C6.33205 19.8733 6.4578 20.0371 6.6301 20.1366C6.80241 20.236 7.00717 20.263 7.19934 20.2114C7.3915 20.1599 7.55533 20.0342 7.65479 19.8619C8.49938 18.3982 9.10094 16.8072 9.43604 15.1509C9.45575 15.0543 9.45622 14.9548 9.43743 14.8581C9.41864 14.7613 9.38096 14.6692 9.32654 14.587C9.27212 14.5048 9.20203 14.4341 9.12028 14.379C9.03853 14.3239 8.94672 14.2855 8.8501 14.2659ZM12.0001 5.25C11.718 5.25006 11.4362 5.26759 11.1564 5.3025C10.9627 5.33157 10.7881 5.43525 10.6698 5.59137C10.5516 5.74749 10.4991 5.94366 10.5236 6.13797C10.5481 6.33227 10.6476 6.50929 10.8009 6.63119C10.9541 6.75309 11.149 6.8102 11.3439 6.79031C12.0827 6.69844 12.8327 6.76454 13.5441 6.98426C14.2555 7.20397 14.9121 7.57227 15.4704 8.06479C16.0288 8.55731 16.4762 9.16282 16.783 9.84122C17.0898 10.5196 17.249 11.2554 17.2501 12C17.2499 12.9715 17.1898 13.9421 17.0701 14.9062C17.0569 15.0043 17.0633 15.104 17.0889 15.1996C17.1144 15.2951 17.1586 15.3847 17.2189 15.4631C17.2792 15.5416 17.3544 15.6073 17.4402 15.6565C17.526 15.7058 17.6207 15.7375 17.7189 15.75C17.75 15.7537 17.7813 15.7556 17.8126 15.7556C17.995 15.7552 18.171 15.6884 18.3077 15.5676C18.4443 15.4468 18.5323 15.2803 18.5551 15.0994C18.6816 14.073 18.7442 13.0398 18.7426 12.0056C18.7421 10.2163 18.032 8.5003 16.768 7.23386C15.504 5.96742 13.7894 5.25397 12.0001 5.25ZM17.431 17.2734C17.3356 17.2488 17.2363 17.2431 17.1387 17.2569C17.0411 17.2706 16.9472 17.3035 16.8623 17.3535C16.7774 17.4036 16.7032 17.4699 16.644 17.5486C16.5847 17.6274 16.5416 17.7171 16.517 17.8125C16.3801 18.3459 16.2217 18.8813 16.0482 19.4062C15.9848 19.5944 15.9985 19.8 16.0863 19.978C16.1742 20.156 16.3291 20.2919 16.517 20.3559C16.594 20.3821 16.6747 20.3954 16.756 20.3953C16.9132 20.3952 17.0663 20.3457 17.1938 20.2539C17.3213 20.162 17.4168 20.0324 17.4667 19.8834C17.6542 19.3284 17.822 18.7584 17.9682 18.1912C17.9934 18.0958 17.9994 17.9964 17.9861 17.8986C17.9727 17.8009 17.9402 17.7067 17.8904 17.6215C17.8406 17.5364 17.7744 17.4618 17.6958 17.4023C17.6171 17.3427 17.5275 17.2992 17.432 17.2744L17.431 17.2734Z" fill="white"/>
</g>
</svg>
