<svg width="48" height="48" viewBox="0 0 48 48" fill="none" xmlns="http://www.w3.org/2000/svg">
<g id="Clip path group">
<mask id="mask0_1282_7834" style="mask-type:luminance" maskUnits="userSpaceOnUse" x="0" y="0" width="48" height="48">
<g id="clip0_1113_4460">
<path id="Vector" d="M48 0H0V48H48V0Z" fill="white"/>
</g>
</mask>
<g mask="url(#mask0_1282_7834)">
<g id="Group">
<path id="Vector_2" d="M33.9672 37.512C31.4654 39.36 28.5 40.4772 25.4006 40.7395C22.3015 41.0016 19.1905 40.3982 16.4139 38.9964C13.6375 37.5948 11.3046 35.4499 9.6751 32.8008C8.04562 30.1514 7.18359 27.102 7.18496 23.9917C7.18635 20.8815 8.05109 17.8327 9.68293 15.1849C11.3147 12.5371 13.6495 10.3943 16.4273 8.99512C19.205 7.59595 22.3166 6.99532 25.4155 7.26019C28.5146 7.52503 31.4791 8.64494 33.9792 10.4952L38.6328 4.97519C35.0808 2.24293 30.8349 0.55967 26.3757 0.115985C21.9166 -0.327699 17.4223 0.485918 13.4016 2.46472C9.381 4.44352 5.99468 7.50847 3.62607 11.3125C1.25747 15.1166 0.00120904 19.5078 -0.000486563 23.989C-0.00218216 28.4702 1.25076 32.8622 3.61649 36.6682C5.9822 40.4741 9.3662 43.5415 13.3853 45.5234C17.4045 47.5051 21.8982 48.3223 26.3577 47.8819C30.8172 47.4415 35.0645 45.7615 38.6184 43.032L33.9672 37.512Z" fill="#1F2937"/>
<path id="Vector_3" d="M35.6184 36.1174L40.2696 41.6374C42.7066 39.3908 44.6518 36.6639 45.9826 33.6284C47.3134 30.5929 48.001 27.3145 48.0019 24.0001C48.0031 20.6856 47.3177 17.4069 45.989 14.3704C44.6602 11.334 42.7169 8.60567 40.2816 6.35742L35.6256 11.8774C37.2641 13.4423 38.5685 15.3231 39.4596 17.4063C40.3505 19.4895 40.8101 21.7317 40.8101 23.9974C40.8101 26.2633 40.3505 28.5053 39.4596 30.5885C38.5685 32.6717 37.2641 34.5526 35.6256 36.1174H35.6184Z" fill="#029FEB"/>
</g>
</g>
</g>
</svg>
