<svg width="20" height="19" viewBox="0 0 20 19" fill="none" xmlns="http://www.w3.org/2000/svg">
<path d="M18.5139 12.8554L14.0973 10.8764L14.0851 10.8707C13.8558 10.7727 13.6057 10.7333 13.3574 10.7562C13.1091 10.7792 12.8704 10.8636 12.6629 11.002C12.6385 11.0181 12.615 11.0357 12.5926 11.0545L10.3107 12.9998C8.8651 12.2976 7.3726 10.8164 6.67042 9.3895L8.61854 7.07293C8.63729 7.0495 8.6551 7.02606 8.67198 7.00075C8.80738 6.79384 8.88953 6.55667 8.91112 6.31035C8.93271 6.06402 8.89307 5.81618 8.79573 5.58887V5.57762L6.81104 1.15356C6.68236 0.856621 6.46109 0.609262 6.18028 0.448409C5.89946 0.287556 5.57415 0.221836 5.25291 0.26106C3.98257 0.428223 2.81652 1.05209 1.97254 2.01615C1.12856 2.98021 0.664368 4.21852 0.666665 5.49981C0.666665 12.9436 6.72291 18.9998 14.1667 18.9998C15.448 19.0021 16.6863 18.5379 17.6503 17.6939C18.6144 16.85 19.2383 15.6839 19.4054 14.4136C19.4447 14.0924 19.3791 13.7672 19.2185 13.4864C19.0578 13.2056 18.8106 12.9843 18.5139 12.8554ZM14.1667 17.4998C10.9851 17.4963 7.9349 16.2309 5.68522 13.9813C3.43554 11.7316 2.17014 8.68134 2.16666 5.49981C2.16314 4.58433 2.49296 3.69887 3.09454 3.00878C3.69612 2.3187 4.52832 1.87118 5.43573 1.74981C5.43536 1.75355 5.43536 1.75732 5.43573 1.76106L7.40448 6.16731L5.46666 8.48668C5.447 8.50932 5.42913 8.53345 5.41323 8.55887C5.27215 8.77536 5.18939 9.02462 5.17296 9.28249C5.15653 9.54037 5.207 9.79811 5.31948 10.0307C6.16885 11.7679 7.91916 13.5051 9.6751 14.3536C9.90944 14.465 10.1687 14.5137 10.4275 14.495C10.6863 14.4762 10.9358 14.3907 11.1517 14.2467C11.1757 14.2305 11.1989 14.2129 11.221 14.1942L13.5001 12.2498L17.9064 14.2232C17.9064 14.2232 17.9139 14.2232 17.9167 14.2232C17.7968 15.1319 17.3499 15.9658 16.6597 16.5689C15.9695 17.1719 15.0832 17.5029 14.1667 17.4998Z" fill="#1F2937"/>
</svg>
