<svg width="25" height="24" viewBox="0 0 25 24" fill="none" xmlns="http://www.w3.org/2000/svg">
<g id="SquaresFour">
<path id="Vector" d="M12.05 5.25V9.75C12.05 10.1478 11.892 10.5294 11.6107 10.8107C11.3294 11.092 10.9478 11.25 10.55 11.25H6.05C5.65217 11.25 5.27064 11.092 4.98934 10.8107C4.70803 10.5294 4.55 10.1478 4.55 9.75V5.25C4.55 4.85218 4.70803 4.47064 4.98934 4.18934C5.27064 3.90804 5.65217 3.75 6.05 3.75H10.55C10.9478 3.75 11.3294 3.90804 11.6107 4.18934C11.892 4.47064 12.05 4.85218 12.05 5.25ZM19.55 3.75H15.05C14.6522 3.75 14.2706 3.90804 13.9893 4.18934C13.708 4.47064 13.55 4.85218 13.55 5.25V9.75C13.55 10.1478 13.708 10.5294 13.9893 10.8107C14.2706 11.092 14.6522 11.25 15.05 11.25H19.55C19.9478 11.25 20.3294 11.092 20.6107 10.8107C20.892 10.5294 21.05 10.1478 21.05 9.75V5.25C21.05 4.85218 20.892 4.47064 20.6107 4.18934C20.3294 3.90804 19.9478 3.75 19.55 3.75ZM10.55 12.75H6.05C5.65217 12.75 5.27064 12.908 4.98934 13.1893C4.70803 13.4706 4.55 13.8522 4.55 14.25V18.75C4.55 19.1478 4.70803 19.5294 4.98934 19.8107C5.27064 20.092 5.65217 20.25 6.05 20.25H10.55C10.9478 20.25 11.3294 20.092 11.6107 19.8107C11.892 19.5294 12.05 19.1478 12.05 18.75V14.25C12.05 13.8522 11.892 13.4706 11.6107 13.1893C11.3294 12.908 10.9478 12.75 10.55 12.75ZM19.55 12.75H15.05C14.6522 12.75 14.2706 12.908 13.9893 13.1893C13.708 13.4706 13.55 13.8522 13.55 14.25V18.75C13.55 19.1478 13.708 19.5294 13.9893 19.8107C14.2706 20.092 14.6522 20.25 15.05 20.25H19.55C19.9478 20.25 20.3294 20.092 20.6107 19.8107C20.892 19.5294 21.05 19.1478 21.05 18.75V14.25C21.05 13.8522 20.892 13.4706 20.6107 13.1893C20.3294 12.908 19.9478 12.75 19.55 12.75Z" fill="#64DBF9"/>
</g>
</svg>
