<svg width="25" height="24" viewBox="0 0 25 24" fill="none" xmlns="http://www.w3.org/2000/svg">
<g id="start icon">
<path id="Vector" d="M5.55597 3.24544C5.4901 3.1712 5.41016 3.11077 5.32077 3.06765C5.23138 3.02453 5.13432 2.99958 5.03521 2.99425C4.93611 2.98892 4.83693 3.00331 4.74343 3.03659C4.64992 3.06987 4.56396 3.12137 4.49051 3.18812C4.41706 3.25487 4.35759 3.33554 4.31554 3.42544C4.2735 3.51534 4.24972 3.61269 4.24557 3.71186C4.24143 3.81102 4.25701 3.91002 4.29141 4.00311C4.32581 4.09621 4.37834 4.18155 4.44597 4.25419L7.03253 7.10044C5.44586 7.7669 4.00429 8.73622 2.78847 9.95419C0.913468 11.8292 0.733467 14.5911 2.34878 16.6733C2.54698 16.9269 2.82152 17.11 3.13181 17.1956C3.44211 17.2812 3.7717 17.2647 4.0719 17.1486L8.66565 15.5201L8.69284 15.5098C8.92458 15.4172 9.12954 15.2682 9.28915 15.0763C9.44876 14.8844 9.55798 14.6558 9.6069 14.4111L10.16 11.6445C10.4229 11.5539 10.6909 11.4788 10.9625 11.4195L19.4478 20.7542C19.5137 20.8284 19.5937 20.8889 19.683 20.932C19.7724 20.9751 19.8695 21.0001 19.9686 21.0054C20.0677 21.0107 20.1669 20.9963 20.2604 20.9631C20.3539 20.9298 20.4399 20.8783 20.5133 20.8115C20.5868 20.7448 20.6462 20.6641 20.6883 20.5742C20.7303 20.4843 20.7541 20.3869 20.7582 20.2878C20.7624 20.1886 20.7468 20.0896 20.7124 19.9965C20.678 19.9034 20.6255 19.8181 20.5578 19.7454L5.55597 3.24544ZM9.65284 10.2317C9.40858 10.3187 9.19105 10.4676 9.02148 10.6638C8.85191 10.86 8.7361 11.0968 8.68534 11.3511L8.13222 14.1167L3.55909 15.7386C3.54972 15.7386 3.54316 15.7508 3.53378 15.7545C2.37784 14.2639 2.50253 12.3589 3.84878 11.0145C5.05554 9.80735 6.50996 8.87654 8.11159 8.28638L9.82722 10.1745C9.76909 10.1933 9.71097 10.2111 9.65284 10.2317ZM22.6513 16.6733C22.4531 16.9269 22.1785 17.11 21.8682 17.1956C21.558 17.2812 21.2284 17.2647 20.9282 17.1486L20.061 16.8411C19.9681 16.8081 19.8827 16.7572 19.8095 16.6913C19.7364 16.6253 19.6769 16.5456 19.6346 16.4567C19.549 16.2771 19.5384 16.0709 19.6049 15.8834C19.6378 15.7906 19.6887 15.7052 19.7547 15.632C19.8206 15.5588 19.9003 15.4994 19.9892 15.457C20.1688 15.3715 20.3751 15.3608 20.5625 15.4273L21.441 15.7386L21.4691 15.7498C22.6222 14.2639 22.5003 12.3589 21.1513 11.0145C18.7457 8.60888 15.35 7.33294 11.8372 7.51669C11.7387 7.5218 11.6402 7.50746 11.5472 7.47449C11.4543 7.44152 11.3687 7.39057 11.2955 7.32453C11.2222 7.2585 11.1627 7.17869 11.1203 7.08965C11.0779 7.00061 11.0534 6.90409 11.0483 6.8056C11.0432 6.70711 11.0575 6.60858 11.0905 6.51563C11.1235 6.42268 11.1744 6.33713 11.2405 6.26387C11.3065 6.19062 11.3863 6.13108 11.4754 6.08867C11.5644 6.04626 11.6609 6.0218 11.7594 6.01669C15.6969 5.81138 19.506 7.24482 22.2116 9.95419C24.0857 11.8283 24.2666 14.5911 22.6513 16.6733Z" fill="white"/>
</g>
</svg>
