<svg width="72" height="76" viewBox="0 0 72 76" fill="none" xmlns="http://www.w3.org/2000/svg">
<g filter="url(#filter0_d_66_5875)">
<path d="M56 28C56 16.9543 47.0457 8 36 8C24.9543 8 16 16.9543 16 28C16 37.9548 23.273 46.211 32.7952 47.7446L36 52L39.2048 47.7446C48.727 46.211 56 37.9548 56 28Z" fill="#F9641C"/>
<path d="M28 28C28 23.5817 31.5817 20 36 20C40.4183 20 44 23.5817 44 28C44 32.4183 40.4183 36 36 36C31.5817 36 28 32.4183 28 28Z" fill="#7A051A"/>
</g>
<defs>
<filter id="filter0_d_66_5875" x="0" y="0" width="72" height="76" filterUnits="userSpaceOnUse" color-interpolation-filters="sRGB">
<feFlood flood-opacity="0" result="BackgroundImageFix"/>
<feColorMatrix in="SourceAlpha" type="matrix" values="0 0 0 0 0 0 0 0 0 0 0 0 0 0 0 0 0 0 127 0" result="hardAlpha"/>
<feOffset dy="8"/>
<feGaussianBlur stdDeviation="8"/>
<feComposite in2="hardAlpha" operator="out"/>
<feColorMatrix type="matrix" values="0 0 0 0 1 0 0 0 0 0.227451 0 0 0 0 0.109804 0 0 0 0.24 0"/>
<feBlend mode="normal" in2="BackgroundImageFix" result="effect1_dropShadow_66_5875"/>
<feBlend mode="normal" in="SourceGraphic" in2="effect1_dropShadow_66_5875" result="shape"/>
</filter>
</defs>
</svg>
