<svg width="16" height="16" viewBox="0 0 16 16" fill="none" xmlns="http://www.w3.org/2000/svg">
<g id="SketchLogo">
<path id="Vector" d="M14.7604 6.32307L11.552 2.65641C11.5091 2.60741 11.4563 2.56812 11.397 2.54115C11.3377 2.51418 11.2734 2.50015 11.2083 2.5H4.79161C4.72649 2.50015 4.66215 2.51418 4.60288 2.54115C4.5436 2.56812 4.49076 2.60741 4.44786 2.65641L1.23953 6.32307C1.16468 6.40853 1.12423 6.51873 1.12603 6.63232C1.12783 6.7459 1.17175 6.85477 1.24927 6.93781L7.66593 13.8128C7.70882 13.8588 7.7607 13.8954 7.81836 13.9205C7.87602 13.9456 7.93822 13.9585 8.00109 13.9585C8.06396 13.9585 8.12616 13.9456 8.18382 13.9205C8.24148 13.8954 8.29336 13.8588 8.33625 13.8128L14.7529 6.93781C14.8301 6.85449 14.8736 6.74546 14.875 6.63188C14.8764 6.51829 14.8355 6.40825 14.7604 6.32307ZM13.4066 6.16667H10.9791L8.91661 3.41667H11.0003L13.4066 6.16667ZM4.93942 7.08333L6.66562 11.3991L2.63802 7.08333H4.93942ZM10.0728 7.08333L7.99994 12.2659L5.92713 7.08333H10.0728ZM6.16661 6.16667L7.99994 3.72203L9.83328 6.16667H6.16661ZM11.0605 7.08333H13.3619L9.33427 11.3991L11.0605 7.08333ZM4.99958 3.41667H7.08328L5.02078 6.16667H2.59333L4.99958 3.41667Z" fill="white"/>
</g>
</svg>
