<svg width="20" height="18" viewBox="0 0 20 18" fill="none" xmlns="http://www.w3.org/2000/svg">
<path d="M16.75 11.75C16.0849 11.7506 15.4388 11.9718 14.9129 12.379C14.387 12.7862 14.011 13.3563 13.8438 14H4.75C3.95435 14 3.19129 13.6839 2.62868 13.1213C2.06607 12.5587 1.75 11.7956 1.75 11C1.75 10.2044 2.06607 9.44129 2.62868 8.87868C3.19129 8.31607 3.95435 8 4.75 8H13.75C14.7446 8 15.6984 7.60491 16.4017 6.90165C17.1049 6.19839 17.5 5.24456 17.5 4.25C17.5 3.25544 17.1049 2.30161 16.4017 1.59835C15.6984 0.895088 14.7446 0.5 13.75 0.5H4.75C4.55109 0.5 4.36032 0.579018 4.21967 0.71967C4.07902 0.860322 4 1.05109 4 1.25C4 1.44891 4.07902 1.63968 4.21967 1.78033C4.36032 1.92098 4.55109 2 4.75 2H13.75C14.3467 2 14.919 2.23705 15.341 2.65901C15.7629 3.08097 16 3.65326 16 4.25C16 4.84674 15.7629 5.41903 15.341 5.84099C14.919 6.26295 14.3467 6.5 13.75 6.5H4.75C3.55653 6.5 2.41193 6.97411 1.56802 7.81802C0.724106 8.66193 0.25 9.80653 0.25 11C0.25 12.1935 0.724106 13.3381 1.56802 14.182C2.41193 15.0259 3.55653 15.5 4.75 15.5H13.8438C13.984 16.0432 14.2738 16.5362 14.6802 16.923C15.0866 17.3098 15.5933 17.5749 16.1427 17.6882C16.6922 17.8015 17.2625 17.7584 17.7887 17.5639C18.3149 17.3694 18.7761 17.0312 19.1197 16.5877C19.4634 16.1443 19.6758 15.6133 19.7329 15.0552C19.79 14.4971 19.6894 13.9341 19.4426 13.4303C19.1958 12.9265 18.8127 12.5019 18.3367 12.2049C17.8608 11.9079 17.311 11.7503 16.75 11.75ZM16.75 16.25C16.4533 16.25 16.1633 16.162 15.9166 15.9972C15.67 15.8324 15.4777 15.5981 15.3642 15.324C15.2506 15.0499 15.2209 14.7483 15.2788 14.4574C15.3367 14.1664 15.4796 13.8991 15.6893 13.6893C15.8991 13.4796 16.1664 13.3367 16.4574 13.2788C16.7483 13.2209 17.0499 13.2506 17.324 13.3642C17.5981 13.4777 17.8324 13.67 17.9972 13.9166C18.162 14.1633 18.25 14.4533 18.25 14.75C18.25 15.1478 18.092 15.5294 17.8107 15.8107C17.5294 16.092 17.1478 16.25 16.75 16.25Z" fill="#029FEB"/>
</svg>
