<svg width="70" height="70" viewBox="0 0 70 70" fill="none" xmlns="http://www.w3.org/2000/svg">
<g id="Group">
<g id="Vector">
<path d="M64.6333 29.9994L63.6708 16.2747C63.3474 11.8615 61.3693 7.73274 58.1323 4.71541C54.8955 1.69794 50.6383 0.0138747 46.2136 0.000274658H23.7816C19.3566 0.0138167 15.0996 1.69794 11.8629 4.71541C8.62595 7.73287 6.64781 11.8614 6.32441 16.2747L5.36188 29.9994H4.99756C3.67256 30.0031 2.40303 30.5312 1.46629 31.4679C0.529292 32.4049 0.00142526 33.6744 -0.00244141 34.9994V54.9994C0.00146486 56.3241 0.529592 57.5937 1.46629 58.5307C2.40329 59.4674 3.67256 59.9955 4.99756 59.9994H7.49756V67.4994C7.49756 68.1624 7.7611 68.7981 8.22983 69.2671C8.69857 69.7359 9.33449 69.9991 9.99756 69.9994H19.9976C20.6606 69.9991 21.2965 69.7359 21.7653 69.2671C22.234 68.7981 22.4976 68.1625 22.4976 67.4994V59.9994H47.4976V67.4994C47.4976 68.1624 47.7611 68.7981 48.2298 69.2671C48.6986 69.7359 49.3345 69.9991 49.9976 69.9994H59.9976C60.6606 69.9991 61.2965 69.7359 61.7653 69.2671C62.234 68.7981 62.4976 68.1625 62.4976 67.4994V59.9994H64.9976C66.3226 59.9955 67.5918 59.4674 68.5288 58.5307C69.4656 57.5937 69.9937 56.3241 69.9976 54.9994V34.9994C69.9937 33.6744 69.4658 32.4049 68.5288 31.4679C67.5921 30.5311 66.3226 30.003 64.9976 29.9994H64.6333ZM15.9727 50.8741C14.6732 50.8741 13.4268 50.3577 12.5081 49.4387C11.5893 48.5197 11.0732 47.2733 11.0732 45.9738C11.0732 44.6743 11.5896 43.4279 12.5086 42.5092C13.4276 41.5902 14.6737 41.0741 15.9735 41.0741C17.2729 41.0741 18.5193 41.5905 19.4381 42.5095C20.3571 43.4282 20.8732 44.6746 20.8732 45.9741C20.8711 47.273 20.3542 48.5183 19.4355 49.4368C18.517 50.3553 17.2716 50.8722 15.9727 50.8741ZM54.0227 50.8741C52.7232 50.8741 51.4768 50.3577 50.5581 49.4387C49.6393 48.5197 49.1232 47.2733 49.1232 45.9738C49.1232 44.6743 49.6396 43.4279 50.5586 42.5092C51.4776 41.5902 52.7237 41.0741 54.0235 41.0741C55.3229 41.0741 56.5693 41.5905 57.4881 42.5095C58.4071 43.4282 58.9232 44.6746 58.9232 45.9741C58.9253 47.2746 58.4097 48.5223 57.4902 49.4415C56.5706 50.3611 55.3229 50.8764 54.0227 50.8741ZM54.9979 29.9994C54.9979 28.0103 54.2076 26.1025 52.8011 24.696C51.3945 23.2895 49.487 22.4994 47.4979 22.4994H39.9979C38.0089 22.4991 36.1011 23.2895 34.6945 24.696C33.288 26.1025 32.4979 28.0101 32.4979 29.9994H10.3746L11.3126 16.6267C11.5436 13.4741 12.9566 10.5252 15.2686 8.36941C17.5806 6.21394 20.6212 5.01081 23.7819 5.00068H46.2139C49.3749 5.01083 52.4155 6.21394 54.7273 8.36941C57.0393 10.5251 58.4523 13.4741 58.6833 16.6267L59.6213 29.9994H54.9979Z" fill="#1F2937"/>
<path d="M43.75 9.52874C42.4505 9.52874 41.2041 10.0451 40.2851 10.9639C39.3661 11.8829 38.85 13.1292 38.85 14.4287C38.85 15.7282 39.3662 16.9746 40.2851 17.8936C41.2039 18.8126 42.4503 19.3287 43.7497 19.3287C45.0495 19.329 46.2958 18.8126 47.2146 17.8939C48.1336 16.9749 48.65 15.7285 48.65 14.429C48.6479 13.1301 48.131 11.885 47.2125 10.9665C46.2941 10.048 45.049 9.53108 43.75 9.52874Z" fill="#1F2937"/>
</g>
</g>
</svg>
