<svg width="16" height="17" viewBox="0 0 16 17" fill="none" xmlns="http://www.w3.org/2000/svg">
<path d="M15.2586 4.73214L11.768 1.24073C11.6519 1.12463 11.5141 1.03253 11.3624 0.96969C11.2107 0.906853 11.0482 0.874512 10.884 0.874512C10.7198 0.874512 10.5572 0.906853 10.4056 0.96969C10.2539 1.03253 10.1161 1.12463 10 1.24073L0.366412 10.8751C0.249834 10.9908 0.157407 11.1284 0.0945056 11.2801C0.0316038 11.4318 -0.000518312 11.5945 6.32418e-06 11.7587V15.2501C6.32418e-06 15.5816 0.131702 15.8996 0.366123 16.134C0.600543 16.3684 0.918486 16.5001 1.25001 16.5001H4.74141C4.90563 16.5006 5.0683 16.4685 5.21999 16.4056C5.37168 16.3427 5.50935 16.2503 5.62501 16.1337L15.2586 6.5001C15.3747 6.38403 15.4668 6.24622 15.5296 6.09454C15.5925 5.94286 15.6248 5.7803 15.6248 5.61612C15.6248 5.45194 15.5925 5.28937 15.5296 5.1377C15.4668 4.98602 15.3747 4.84821 15.2586 4.73214ZM4.74141 15.2501H1.25001V11.7587L8.12501 4.8837L11.6164 8.3751L4.74141 15.2501ZM12.5 7.49073L9.0086 4.0001L10.8836 2.1251L14.375 5.61573L12.5 7.49073Z" fill="#1F2937"/>
</svg>
