<svg width="24" height="24" viewBox="0 0 24 24" fill="none" xmlns="http://www.w3.org/2000/svg">
<g id="start icon">
<path id="Vector" d="M14.4694 8.46918L16.1897 6.74981L14.4694 5.03044C14.3287 4.8897 14.2496 4.69883 14.2496 4.49981C14.2496 4.30079 14.3287 4.10992 14.4694 3.96919C14.6101 3.82845 14.801 3.74939 15 3.74939C15.199 3.74939 15.3899 3.82845 15.5306 3.96919L17.25 5.6895L18.9694 3.96919C19.1101 3.82845 19.301 3.74939 19.5 3.74939C19.699 3.74939 19.8899 3.82845 20.0306 3.96919C20.1714 4.10992 20.2504 4.30079 20.2504 4.49981C20.2504 4.69883 20.1714 4.8897 20.0306 5.03044L18.3113 6.74981L20.0306 8.46918C20.1003 8.53887 20.1556 8.62159 20.1933 8.71264C20.231 8.80368 20.2504 8.90126 20.2504 8.99981C20.2504 9.09836 20.231 9.19594 20.1933 9.28698C20.1556 9.37803 20.1003 9.46075 20.0306 9.53044C19.961 9.60012 19.8782 9.65539 19.7872 9.69311C19.6961 9.73082 19.5986 9.75023 19.5 9.75023C19.4015 9.75023 19.3039 9.73082 19.2128 9.69311C19.1218 9.65539 19.0391 9.60012 18.9694 9.53044L17.25 7.81012L15.5306 9.53044C15.3899 9.67117 15.199 9.75023 15 9.75023C14.801 9.75023 14.6101 9.67117 14.4694 9.53044C14.3287 9.3897 14.2496 9.19883 14.2496 8.99981C14.2496 8.80079 14.3287 8.60992 14.4694 8.46918ZM21.7388 16.4136C21.5716 17.6839 20.9477 18.85 19.9837 19.6939C19.0196 20.5379 17.7813 21.0021 16.5 20.9998C9.05626 20.9998 3.00001 14.9436 3.00001 7.49981C2.99771 6.21852 3.4619 4.98021 4.30588 4.01615C5.14986 3.05209 6.31592 2.42822 7.58626 2.26106C7.9075 2.22184 8.2328 2.28756 8.51362 2.44841C8.79444 2.60926 9.0157 2.85662 9.14438 3.15356L11.1244 7.57387V7.58512C11.2229 7.81242 11.2636 8.06058 11.2428 8.30744C11.222 8.5543 11.1404 8.79217 11.0053 8.99981C10.9884 9.02512 10.9706 9.04856 10.9519 9.072L9.00001 11.3857C9.7022 12.8126 11.1947 14.292 12.6403 14.9961L14.9222 13.0545C14.9446 13.0357 14.9681 13.0181 14.9925 13.002C15.2 12.8636 15.4387 12.7792 15.687 12.7562C15.9353 12.7333 16.1854 12.7727 16.4147 12.8707L16.4269 12.8764L20.8434 14.8554C21.1409 14.9837 21.3889 15.2047 21.5503 15.4856C21.7116 15.7664 21.7778 16.092 21.7388 16.4136ZM20.25 16.2261C20.25 16.2261 20.2434 16.2261 20.2397 16.2261L15.8334 14.2526L13.5506 16.1942C13.5285 16.2129 13.5053 16.2305 13.4813 16.2467C13.2654 16.3907 13.0159 16.4762 12.7571 16.495C12.4983 16.5137 12.239 16.465 12.0047 16.3536C10.2488 15.5051 8.49845 13.7679 7.64907 12.0307C7.5366 11.7981 7.48613 11.5404 7.50255 11.2825C7.51898 11.0246 7.60174 10.7754 7.74282 10.5589C7.75872 10.5335 7.77659 10.5093 7.79626 10.4867L9.75001 8.17012L7.78126 3.76387C7.78089 3.76013 7.78089 3.75636 7.78126 3.75262C6.87212 3.87122 6.03739 4.31715 5.43339 5.00692C4.8294 5.69668 4.49755 6.58297 4.50001 7.49981C4.50348 10.6813 5.76888 13.7316 8.01856 15.9813C10.2682 18.2309 13.3185 19.4963 16.5 19.4998C17.4163 19.503 18.3023 19.1723 18.9925 18.5696C19.6827 17.9669 20.1297 17.1335 20.25 16.2251V16.2261Z" fill="white"/>
</g>
</svg>
