<svg width="18" height="19" viewBox="0 0 18 19" fill="none" xmlns="http://www.w3.org/2000/svg">
<path d="M0.25875 1.93763C0.178065 2.00756 0.113243 2.09392 0.0686202 2.19093C0.0239975 2.28794 0.000602508 2.39335 0 2.50013V18.2501C0 18.449 0.0790178 18.6398 0.21967 18.7805C0.360322 18.9211 0.551088 19.0001 0.75 19.0001C0.948912 19.0001 1.13968 18.9211 1.28033 18.7805C1.42098 18.6398 1.5 18.449 1.5 18.2501V14.1036C4.01156 12.1198 6.17531 13.1895 8.66719 14.4233C10.2047 15.1836 11.8603 16.0029 13.6359 16.0029C14.9419 16.0029 16.3116 15.5576 17.7441 14.3154C17.8247 14.2455 17.8896 14.1591 17.9342 14.0621C17.9788 13.9651 18.0022 13.8597 18.0028 13.7529V2.50013C18.0025 2.35617 17.9607 2.21535 17.8825 2.09449C17.8043 1.97362 17.693 1.87782 17.5618 1.81851C17.4306 1.7592 17.2852 1.73889 17.1428 1.76001C17.0004 1.78114 16.8671 1.8428 16.7587 1.93763C14.1337 4.20919 11.91 3.10857 9.33281 1.83263C6.66281 0.508878 3.63562 -0.98831 0.25875 1.93763ZM16.5 13.3986C13.9884 15.3823 11.8247 14.3117 9.33281 13.0789C6.98906 11.9211 4.38187 10.6292 1.5 12.2914V2.85544C4.01156 0.87169 6.17531 1.94138 8.66719 3.17419C11.0109 4.332 13.6191 5.62388 16.5 3.96169V13.3986Z" fill="#FF3A1C"/>
</svg>
