<svg width="40" height="41" viewBox="0 0 40 41" fill="none" xmlns="http://www.w3.org/2000/svg">
<path d="M28.25 12.25H11.75C11.3522 12.25 10.9706 12.408 10.6893 12.6893C10.408 12.9706 10.25 13.3522 10.25 13.75V27.25C10.25 27.6478 10.408 28.0294 10.6893 28.3107C10.9706 28.592 11.3522 28.75 11.75 28.75H28.25C28.6478 28.75 29.0294 28.592 29.3107 28.3107C29.592 28.0294 29.75 27.6478 29.75 27.25V13.75C29.75 13.3522 29.592 12.9706 29.3107 12.6893C29.0294 12.408 28.6478 12.25 28.25 12.25ZM28.25 13.75V23.3828L25.8059 20.9397C25.6666 20.8004 25.5013 20.6898 25.3193 20.6144C25.1373 20.539 24.9422 20.5002 24.7452 20.5002C24.5481 20.5002 24.3531 20.539 24.1711 20.6144C23.989 20.6898 23.8237 20.8004 23.6844 20.9397L21.8094 22.8147L17.6844 18.6897C17.4031 18.4086 17.0217 18.2507 16.6241 18.2507C16.2264 18.2507 15.845 18.4086 15.5638 18.6897L11.75 22.5034V13.75H28.25ZM11.75 24.625L16.625 19.75L24.125 27.25H11.75V24.625ZM28.25 27.25H26.2466L22.8716 23.875L24.7466 22L28.25 25.5044V27.25ZM21.5 17.875C21.5 17.6525 21.566 17.435 21.6896 17.25C21.8132 17.065 21.9889 16.9208 22.1945 16.8356C22.4 16.7505 22.6262 16.7282 22.8445 16.7716C23.0627 16.815 23.2632 16.9222 23.4205 17.0795C23.5778 17.2368 23.685 17.4373 23.7284 17.6555C23.7718 17.8738 23.7495 18.1 23.6644 18.3055C23.5792 18.5111 23.435 18.6868 23.25 18.8104C23.065 18.934 22.8475 19 22.625 19C22.3266 19 22.0405 18.8815 21.8295 18.6705C21.6185 18.4595 21.5 18.1734 21.5 17.875Z" fill="#343330"/>
</svg>
