<svg width="46" height="32" viewBox="0 0 46 32" fill="none" xmlns="http://www.w3.org/2000/svg">
<path fill-rule="evenodd" clip-rule="evenodd" d="M21.4105 20.7034V16.7906H23.43C24.2575 16.7906 24.956 16.5133 25.5254 15.9664L25.6621 15.8278C26.7022 14.6955 26.6338 12.9316 25.5254 11.8841C24.9712 11.3295 24.212 11.0291 23.43 11.0445H20.1881V20.7034H21.4105ZM21.4106 15.6043V12.2306H23.4608C23.9012 12.2306 24.3189 12.4001 24.6302 12.7082C25.2908 13.3552 25.306 14.4335 24.6681 15.1036C24.3568 15.4349 23.9164 15.6197 23.4608 15.6043H21.4106ZM31.3638 14.6107C30.8399 14.1255 30.1263 13.879 29.2228 13.879C28.0612 13.879 27.1881 14.3103 26.6111 15.1653L27.6892 15.8508C28.084 15.2654 28.623 14.9727 29.3063 14.9727C29.7391 14.9727 30.1566 15.1345 30.4831 15.4272C30.802 15.7045 30.9842 16.105 30.9842 16.5287V16.8136C30.5135 16.5518 29.9213 16.4131 29.1924 16.4131C28.3421 16.4131 27.6588 16.6134 27.1501 17.0216C26.6415 17.4298 26.3833 17.969 26.3833 18.6545C26.3682 19.2784 26.6339 19.8715 27.1046 20.2721C27.5829 20.7034 28.1903 20.9191 28.9039 20.9191C29.7466 20.9191 30.4148 20.5417 30.9234 19.7868H30.9766V20.7034H32.1458V16.6288C32.1458 15.7738 31.8876 15.096 31.3638 14.6107ZM28.0462 19.4864C27.7956 19.3016 27.6438 19.0012 27.6438 18.6777C27.6438 18.3157 27.8108 18.0153 28.1373 17.7765C28.4714 17.5377 28.8891 17.4145 29.3826 17.4145C30.066 17.4068 30.5976 17.5608 30.9772 17.8689C30.9772 18.3927 30.7722 18.8471 30.3698 19.2323C30.0053 19.602 29.5117 19.8099 28.9954 19.8099C28.6537 19.8176 28.3196 19.7021 28.0462 19.4864ZM34.7727 23.6072L38.8572 14.0947H37.5286L35.6382 18.8394H35.6154L33.6794 14.0947H32.3508L35.0308 20.2798L33.5124 23.6072H34.7727Z" fill="#3C4043"/>
<path d="M17.1905 15.9439C17.1905 15.5665 17.1602 15.1891 17.0994 14.8193H11.9444V16.9529H14.8977C14.7763 17.6384 14.3815 18.2546 13.8045 18.6398V20.0262H15.5658C16.5984 19.0634 17.1905 17.6385 17.1905 15.9439Z" fill="#4285F4"/>
<path d="M11.9446 21.3666C13.4175 21.3666 14.6626 20.8737 15.5661 20.0264L13.8047 18.64C13.3112 18.9789 12.6811 19.1714 11.9446 19.1714C10.5173 19.1714 9.31016 18.1932 8.87741 16.8838H7.0629V18.3165C7.98913 20.1882 9.87957 21.3666 11.9446 21.3666Z" fill="#34A853"/>
<path d="M8.87762 16.8839C8.64982 16.1983 8.64982 15.4512 8.87762 14.758V13.333H7.06281C6.2807 14.8966 6.2807 16.7452 7.06281 18.3088L8.87762 16.8839Z" fill="#FBBC04"/>
<path d="M11.9446 12.47C12.7266 12.4546 13.4782 12.755 14.0401 13.3018L15.604 11.7151C14.6095 10.7754 13.3036 10.2593 11.9446 10.2747C9.87957 10.2747 7.98913 11.4609 7.0629 13.3326L8.87741 14.7653C9.31016 13.4482 10.5173 12.47 11.9446 12.47Z" fill="#EA4335"/>
</svg>
