<svg width="24" height="24" viewBox="0 0 24 24" fill="none" xmlns="http://www.w3.org/2000/svg">
<g id="Handbag">
<path id="Vector" d="M22.4897 18.5737L21.1528 7.32375C21.1095 6.95721 20.9325 6.61952 20.6557 6.37529C20.379 6.13106 20.0219 5.99744 19.6528 6H16.5C16.5 4.80653 16.0259 3.66193 15.182 2.81802C14.3381 1.97411 13.1935 1.5 12 1.5C10.8065 1.5 9.66194 1.97411 8.81802 2.81802C7.97411 3.66193 7.50001 4.80653 7.50001 6H4.34344C3.97435 5.99744 3.61728 6.13106 3.34053 6.37529C3.06379 6.61952 2.8868 6.95721 2.84344 7.32375L1.50657 18.5737C1.48207 18.7837 1.50223 18.9965 1.56572 19.1981C1.62922 19.3998 1.73462 19.5857 1.875 19.7438C2.01641 19.9025 2.18969 20.0296 2.38353 20.1168C2.57738 20.204 2.78744 20.2494 3.00001 20.25H20.9925C21.2063 20.2505 21.4178 20.2056 21.6131 20.1183C21.8083 20.0311 21.9828 19.9034 22.125 19.7438C22.2647 19.5854 22.3694 19.3993 22.4323 19.1977C22.4951 18.9961 22.5147 18.7835 22.4897 18.5737ZM12 3C12.7957 3 13.5587 3.31607 14.1213 3.87868C14.6839 4.44129 15 5.20435 15 6H9.00001C9.00001 5.20435 9.31608 4.44129 9.87868 3.87868C10.4413 3.31607 11.2044 3 12 3ZM3.00001 18.75L4.34344 7.5H7.50001V9.75C7.50001 9.94891 7.57902 10.1397 7.71968 10.2803C7.86033 10.421 8.05109 10.5 8.25001 10.5C8.44892 10.5 8.63968 10.421 8.78034 10.2803C8.92099 10.1397 9.00001 9.94891 9.00001 9.75V7.5H15V9.75C15 9.94891 15.079 10.1397 15.2197 10.2803C15.3603 10.421 15.5511 10.5 15.75 10.5C15.9489 10.5 16.1397 10.421 16.2803 10.2803C16.421 10.1397 16.5 9.94891 16.5 9.75V7.5H19.6641L20.9925 18.75H3.00001Z" fill="#6B7280"/>
</g>
</svg>
