<svg width="16" height="16" viewBox="0 0 16 16" fill="none" xmlns="http://www.w3.org/2000/svg">
<g id="Lightning">
<path id="Vector" d="M13.0296 7.43697C13.0122 7.36351 12.977 7.29547 12.927 7.2389C12.877 7.18233 12.8139 7.13898 12.7431 7.1127L9.44254 5.87463L10.2824 1.67343C10.3015 1.57581 10.2882 1.47466 10.2447 1.38524C10.2012 1.29581 10.1298 1.22297 10.0412 1.17769C9.95268 1.13242 9.85181 1.11717 9.75384 1.13425C9.65587 1.15133 9.56611 1.19982 9.49811 1.27239L3.08145 8.14739C3.02933 8.2023 2.99163 8.26927 2.97171 8.34231C2.9518 8.41535 2.95028 8.49219 2.9673 8.56595C2.98433 8.63972 3.01936 8.70813 3.06927 8.76505C3.11918 8.82198 3.18241 8.86565 3.25332 8.89218L6.55504 10.1302L5.71744 14.3269C5.69842 14.4245 5.71166 14.5256 5.75518 14.6151C5.79869 14.7045 5.87011 14.7773 5.95865 14.8226C6.0472 14.8679 6.14806 14.8831 6.24603 14.866C6.344 14.849 6.43376 14.8005 6.50176 14.7279L12.9184 7.85291C12.9696 7.79798 13.0065 7.73133 13.0259 7.6588C13.0453 7.58627 13.0465 7.5101 13.0296 7.43697ZM6.93259 12.9272L7.53244 9.92629C7.55391 9.81986 7.53689 9.70927 7.48443 9.61421C7.43197 9.51915 7.34747 9.4458 7.24598 9.40723L4.21869 8.26999L9.06671 3.07593L8.46744 6.07686C8.44597 6.18329 8.46298 6.29389 8.51544 6.38895C8.5679 6.48401 8.6524 6.55736 8.7539 6.59593L11.7789 7.7303L6.93259 12.9272Z" fill="white"/>
</g>
</svg>
