<svg width="80" height="80" viewBox="0 0 80 80" fill="none" xmlns="http://www.w3.org/2000/svg">
<g id="Role Icons">
<g id="Vector">
<path d="M15.7062 59.2846L10.0494 68.381C9.73419 68.8879 9.52613 69.454 9.4381 70.0445C9.35006 70.6349 9.38392 71.2371 9.53759 71.8139C9.69125 72.3908 9.96147 72.93 10.3316 73.3984C10.7017 73.8668 11.1638 74.2544 11.6895 74.5374L11.7218 74.5545C12.4341 74.8348 13.2222 74.8566 13.9488 74.6159C14.6755 74.3753 15.2948 73.8875 15.6989 73.2374L22.8828 63.1425C23.5632 62.0479 24.0281 60.8333 24.2524 59.5641L25.157 55.6391C25.2011 55.443 25.2996 55.2634 25.4413 55.1209C25.583 54.9784 25.7621 54.8788 25.958 54.8336C26.1538 54.7885 26.3584 54.7996 26.5482 54.8656C26.738 54.9317 26.9053 55.05 27.0308 55.207L31.9655 60.4662L32.3543 72.9224C32.4596 73.5051 32.7662 74.0323 33.2205 74.412C33.6749 74.7918 34.2482 74.9999 34.8403 75H36.5444C36.904 75 37.2594 74.9233 37.587 74.7749C37.9145 74.6265 38.2066 74.4099 38.4436 74.1395C38.6807 73.8692 38.8573 73.5513 38.9617 73.2072C39.066 72.8631 39.0957 72.5007 39.0487 72.1442L39.3325 63.8303C40.2188 64.5787 41.3398 64.9919 42.4997 64.9979H44.9997V72.4976C45.0016 73.1601 45.2656 73.7948 45.7341 74.2632C46.2025 74.7317 46.8373 74.9957 47.4998 74.9976H57.4998C58.1623 74.9957 58.7971 74.7317 59.2655 74.2632C59.734 73.7948 59.998 73.1601 59.9999 72.4976V64.9979H75V5H61.2749C56.8508 5.01534 52.5956 6.70017 49.3602 9.71753C46.1249 12.7349 44.1479 16.8623 43.8247 21.2744L42.8744 34.999H42.4997C41.704 35.0048 40.9215 35.2035 40.2194 35.5782C39.6573 35.1814 39.1843 34.6714 38.8309 34.081C37.1538 30.9355 35.3074 27.8833 33.2998 24.9377C31.8579 23.4857 29.8993 22.6644 27.853 22.6538C25.5457 22.6538 23.2736 23.2191 21.2354 24.3005L13.7641 28.2652C12.8808 28.7339 12.1564 29.4542 11.6828 30.3348L5.30148 42.1306C5.1421 42.4269 5.04349 42.752 5.01147 43.0868C4.97945 43.4217 5.01464 43.7595 5.11499 44.0806C5.21535 44.4017 5.37883 44.6994 5.59585 44.9565C5.81287 45.2135 6.07905 45.4246 6.37877 45.5773L8.03833 46.4238C8.63489 46.7279 9.32777 46.7826 9.96469 46.5761C10.6016 46.3695 11.1304 45.9185 11.435 45.3222L15.5543 37.5508C15.992 36.7144 16.6553 36.0173 17.469 35.5386L19.7138 34.2191L16.435 57.196C16.3495 57.9376 16.1006 58.6509 15.7062 59.2846ZM53.4745 55.8735C52.5054 55.8734 51.5581 55.5859 50.7523 55.0475C49.9466 54.509 49.3186 53.7437 48.9478 52.8484C48.577 51.953 48.4801 50.9679 48.6692 50.0174C48.8583 49.067 49.325 48.194 50.0103 47.5088C50.6956 46.8236 51.5687 46.3569 52.5192 46.1679C53.4697 45.9789 54.455 46.076 55.3503 46.4468C56.2456 46.8177 57.0109 47.4457 57.5493 48.2515C58.0877 49.0573 58.3751 50.0046 58.3751 50.9736C58.3729 52.2726 57.8558 53.5177 56.9373 54.4361C56.0187 55.3545 54.7735 55.8714 53.4745 55.8735ZM48.8248 21.6248C49.0504 18.4738 50.459 15.5247 52.768 13.3687C55.077 11.2127 58.1157 10.0093 61.2749 9.99983H70V34.999H47.8745L48.8248 21.6248ZM32.7754 44.3365L33.2442 41.9306C33.2736 41.7795 33.339 41.6378 33.435 41.5175C33.5309 41.3971 33.6545 41.3017 33.7952 41.2394C33.9359 41.1771 34.0896 41.1497 34.2432 41.1595C34.3968 41.1693 34.5457 41.2161 34.6773 41.2958L35.7284 41.9324C36.2988 42.2727 36.8904 42.576 37.4997 42.8405V53.9876L33.5458 48.1284C33.1745 47.578 32.9154 46.9597 32.7832 46.3091C32.651 45.6584 32.6484 44.9882 32.7754 44.3365Z" fill="#1F2937"/>
<path d="M32.4997 5C31.0163 5.00006 29.5663 5.43998 28.333 6.26415C27.0996 7.08831 26.1384 8.25969 25.5708 9.63016C25.0032 11.0006 24.8547 12.5086 25.1442 13.9635C25.4336 15.4183 26.148 16.7547 27.1969 17.8035C28.2459 18.8524 29.5823 19.5666 31.0372 19.856C32.492 20.1453 34 19.9967 35.3705 19.429C36.7409 18.8612 37.9122 17.8999 38.7362 16.6665C39.5603 15.433 40.0001 13.983 40 12.4996C40 11.5147 39.806 10.5394 39.4291 9.62945C39.0522 8.71951 38.4997 7.89272 37.8032 7.1963C37.1067 6.49989 36.2799 5.94748 35.3699 5.57064C34.4599 5.1938 33.4846 4.99989 32.4997 5Z" fill="#1F2937"/>
</g>
</g>
</svg>
