<svg width="49" height="48" viewBox="0 0 49 48" fill="none" xmlns="http://www.w3.org/2000/svg">
<path d="M19.8905 17.0522H25.61V29.8907C25.61 32.2832 24.7775 34.2707 23.216 35.6297C21.8165 36.8477 19.871 37.5167 17.741 37.5167C16.382 37.5167 15.002 37.2317 13.7255 36.7247V31.6547C13.907 31.7567 14.0705 31.8377 14.0705 31.8377C14.921 32.2427 15.8345 32.4677 16.7465 32.4677C17.639 32.4677 18.41 32.2637 19.0175 31.8782C19.667 31.4732 20.0525 30.8852 20.1335 30.1952C19.2724 30.926 18.1804 31.3282 17.051 31.3307C15.7877 31.3287 14.5768 30.826 13.6835 29.9328C12.7902 29.0395 12.2875 27.8285 12.2855 26.5652V17.0522H18.0035V24.6572C18.0035 25.3892 18.836 25.9367 19.607 25.3892C19.7036 25.3204 19.7818 25.2288 19.8346 25.1226C19.8874 25.0164 19.9133 24.8988 19.91 24.7802V17.0522H19.8905ZM10.8665 26.5652C10.8665 28.1057 11.3525 29.4647 12.2855 30.4997C12.3455 30.5597 12.488 30.7217 12.488 30.7217C12.488 30.7217 12.326 30.8237 12.245 30.8642C11.5913 31.1714 10.8778 31.3307 10.1555 31.3307C7.742 31.3307 5.1665 29.5457 5.1665 25.6112V11.3342H10.8665V26.5652ZM42.26 22.7717V23.7257C42.26 24.7607 43.091 25.6307 44.165 25.6307V31.3517H43.9235C41.9555 31.2902 40.1105 30.5192 38.7515 29.1617C37.331 27.7412 36.5615 25.8137 36.5615 23.7467V18.5132C36.5615 17.1332 35.081 16.0787 33.6005 16.8902C33.3413 17.0408 33.1261 17.2568 32.9766 17.5166C32.8271 17.7764 32.7484 18.071 32.7485 18.3707V19.9322H35.1215V25.6112H32.7485C32.75 27.088 32.1753 28.5072 31.1465 29.5667C30.1342 30.6343 28.7424 31.2604 27.272 31.3097H27.05V18.3497C27.05 15.5312 29.1995 12.3677 31.835 11.3942C36.581 9.63023 41.2865 12.5702 42.1385 17.0522H44.1665V22.7717H42.26Z" fill="#FF00BF"/>
</svg>
