<svg width="19" height="19" viewBox="0 0 19 19" fill="none" xmlns="http://www.w3.org/2000/svg">
<path d="M9.375 0.25C6.88943 0.25273 4.50645 1.24133 2.74889 2.99889C0.991327 4.75645 0.00272962 7.13943 0 9.625V17.5309C0.000496137 17.9204 0.155431 18.2938 0.430826 18.5692C0.706222 18.8446 1.0796 18.9995 1.46906 19H9.375C11.8614 19 14.246 18.0123 16.0041 16.2541C17.7623 14.496 18.75 12.1114 18.75 9.625C18.75 7.1386 17.7623 4.75403 16.0041 2.99587C14.246 1.23772 11.8614 0.25 9.375 0.25ZM9.375 17.5H1.5V9.625C1.5 8.06747 1.96186 6.54492 2.82718 5.24988C3.69249 3.95485 4.9224 2.94549 6.36137 2.34945C7.80034 1.75341 9.38374 1.59746 10.9113 1.90132C12.4389 2.20517 13.8421 2.9552 14.9435 4.05653C16.0448 5.15787 16.7948 6.56106 17.0987 8.08866C17.4025 9.61626 17.2466 11.1997 16.6506 12.6386C16.0545 14.0776 15.0452 15.3075 13.7501 16.1728C12.4551 17.0381 10.9325 17.5 9.375 17.5ZM10.5 10C10.5 10.2225 10.434 10.44 10.3104 10.625C10.1868 10.81 10.0111 10.9542 9.80552 11.0394C9.59995 11.1245 9.37375 11.1468 9.15552 11.1034C8.9373 11.06 8.73684 10.9528 8.5795 10.7955C8.42217 10.6382 8.31502 10.4377 8.27162 10.2195C8.22821 10.0012 8.25049 9.77505 8.33564 9.56948C8.42078 9.36391 8.56498 9.18821 8.74998 9.0646C8.93499 8.94098 9.1525 8.875 9.375 8.875C9.67337 8.875 9.95952 8.99353 10.1705 9.2045C10.3815 9.41548 10.5 9.70163 10.5 10ZM6.375 10C6.375 10.2225 6.30902 10.44 6.1854 10.625C6.06179 10.81 5.88609 10.9542 5.68052 11.0394C5.47495 11.1245 5.24875 11.1468 5.03052 11.1034C4.81229 11.06 4.61184 10.9528 4.4545 10.7955C4.29717 10.6382 4.19002 10.4377 4.14662 10.2195C4.10321 10.0012 4.12549 9.77505 4.21064 9.56948C4.29578 9.36391 4.43998 9.18821 4.62498 9.0646C4.80999 8.94098 5.0275 8.875 5.25 8.875C5.54837 8.875 5.83452 8.99353 6.0455 9.2045C6.25647 9.41548 6.375 9.70163 6.375 10ZM14.625 10C14.625 10.2225 14.559 10.44 14.4354 10.625C14.3118 10.81 14.1361 10.9542 13.9305 11.0394C13.725 11.1245 13.4988 11.1468 13.2805 11.1034C13.0623 11.06 12.8618 10.9528 12.7045 10.7955C12.5472 10.6382 12.44 10.4377 12.3966 10.2195C12.3532 10.0012 12.3755 9.77505 12.4606 9.56948C12.5458 9.36391 12.69 9.18821 12.875 9.0646C13.06 8.94098 13.2775 8.875 13.5 8.875C13.7984 8.875 14.0845 8.99353 14.2955 9.2045C14.5065 9.41548 14.625 9.70163 14.625 10Z" fill="white"/>
</svg>
