<svg width="25" height="25" viewBox="0 0 25 25" fill="none" xmlns="http://www.w3.org/2000/svg">
<g id="PaperPlaneRight">
<path id="Vector" d="M22.25 12.4895C22.2507 12.7567 22.18 13.0193 22.0451 13.2501C21.9103 13.4808 21.7163 13.6714 21.4831 13.802L5.74156 22.8029C5.51539 22.9312 5.25999 22.999 5 22.9998C4.76023 22.9993 4.52407 22.9413 4.31132 22.8308C4.09857 22.7202 3.91542 22.5602 3.77723 22.3643C3.63905 22.1684 3.54984 21.9421 3.5171 21.7046C3.48436 21.4671 3.50904 21.2252 3.58906 20.9992L6.15312 13.5039C6.17839 13.4297 6.22624 13.3653 6.28997 13.3198C6.3537 13.2742 6.43009 13.2497 6.50844 13.2498H13.25C13.3528 13.25 13.4546 13.2291 13.549 13.1883C13.6434 13.1476 13.7284 13.0879 13.7987 13.0129C13.869 12.9379 13.9232 12.8492 13.9578 12.7524C13.9925 12.6556 14.0068 12.5527 14 12.4501C13.983 12.2572 13.8938 12.0779 13.7502 11.9481C13.6066 11.8182 13.4192 11.7474 13.2256 11.7498H6.515C6.43677 11.7499 6.36046 11.7256 6.29675 11.6802C6.23303 11.6348 6.18511 11.5706 6.15969 11.4967L3.58719 3.99667C3.48701 3.70928 3.47662 3.39821 3.55741 3.10478C3.63819 2.81135 3.80632 2.54943 4.03948 2.35381C4.27264 2.15819 4.55978 2.03812 4.86279 2.00955C5.1658 1.98098 5.47032 2.04526 5.73594 2.19385L21.4859 11.1835C21.7176 11.314 21.9104 11.5036 22.0447 11.7331C22.1789 11.9626 22.2498 12.2236 22.25 12.4895Z" fill="white"/>
</g>
</svg>
