<svg width="19" height="20" viewBox="0 0 19 20" fill="none" xmlns="http://www.w3.org/2000/svg">
<path d="M17.6363 6.76938C17.1329 6.12244 16.4845 5.60285 15.7435 5.2525C15.6798 3.90459 15.0997 2.63293 14.1233 1.70144C13.147 0.769959 11.8494 0.250186 10.5 0.25H4.87502C4.54052 0.250051 4.21564 0.361903 3.95201 0.567779C3.68838 0.773655 3.50113 1.06174 3.42002 1.38625L0.0450171 14.8862C-0.0102553 15.1074 -0.014409 15.3382 0.0328717 15.5612C0.0801524 15.7841 0.177624 15.9934 0.317883 16.1731C0.458142 16.3527 0.6375 16.498 0.842334 16.598C1.04717 16.698 1.27209 16.75 1.50002 16.75H4.07814L3.79689 17.8862C3.74166 18.1072 3.73747 18.3379 3.78465 18.5607C3.83183 18.7835 3.92913 18.9927 4.06918 19.1723C4.20923 19.3519 4.38835 19.4973 4.59294 19.5974C4.79754 19.6975 5.02225 19.7497 5.25002 19.75H8.20314C8.53731 19.7495 8.86176 19.6375 9.12501 19.4316C9.38826 19.2258 9.57523 18.9379 9.65627 18.6138L10.5 15.25H13.5C14.4836 15.25 15.4474 14.9736 16.2816 14.4524C17.1158 13.9313 17.7868 13.1863 18.2181 12.3023C18.6494 11.4183 18.8238 10.4309 18.7212 9.45269C18.6187 8.47445 18.2434 7.54469 17.6381 6.76938H17.6363ZM1.50002 15.25L4.87502 1.75H10.5C11.3726 1.74975 12.218 2.05381 12.8905 2.60979C13.563 3.16577 14.0206 3.93887 14.1844 4.79594C13.9575 4.76598 13.7289 4.75064 13.5 4.75H8.25002C7.91536 4.74984 7.59027 4.8616 7.32645 5.06749C7.06263 5.27338 6.87523 5.56159 6.79408 5.88625L4.45502 15.25H1.50002ZM17.1347 10.9094C16.9329 11.7207 16.4655 12.4411 15.8068 12.9559C15.1481 13.4707 14.336 13.7502 13.5 13.75H10.5C10.1655 13.7501 9.84065 13.8619 9.57702 14.0678C9.31339 14.2737 9.12613 14.5617 9.04502 14.8862L8.20127 18.25H5.25002L7.12502 10.75H10.5C11.6532 10.7503 12.7743 10.3703 13.6896 9.66874C14.6049 8.9672 15.2632 7.98336 15.5625 6.86969C15.9011 7.09406 16.2013 7.37171 16.4513 7.69187C16.8041 8.13999 17.0492 8.66314 17.1679 9.22098C17.2865 9.77883 17.2755 10.3565 17.1356 10.9094H17.1347Z" fill="#029FEB"/>
</svg>
