<svg width="46" height="32" viewBox="0 0 46 32" fill="none" xmlns="http://www.w3.org/2000/svg">
<path fill-rule="evenodd" clip-rule="evenodd" d="M19.4856 24.5974L19.7799 22.6652L19.1243 22.6494H15.9937L18.1694 8.39127C18.1761 8.3481 18.198 8.30802 18.23 8.2795C18.2622 8.25099 18.3032 8.23535 18.3461 8.23535H23.6247C25.3773 8.23535 26.5866 8.6122 27.2179 9.35612C27.514 9.70511 27.7025 10.0699 27.7938 10.4712C27.8894 10.8924 27.891 11.3955 27.7977 12.0092L27.7909 12.0539V12.4472L28.087 12.6205C28.3362 12.7572 28.5343 12.9136 28.6863 13.0927C28.9394 13.3912 29.1032 13.7704 29.1724 14.22C29.244 14.6823 29.2203 15.2327 29.1032 15.8557C28.9681 16.5723 28.7498 17.1965 28.4549 17.7071C28.1837 18.1776 27.8382 18.568 27.4279 18.8704C27.0362 19.1578 26.5709 19.3759 26.0447 19.5156C25.5347 19.6527 24.9534 19.722 24.3158 19.722H23.905C23.6113 19.722 23.326 19.8313 23.102 20.0273C22.8774 20.2274 22.7289 20.5008 22.6833 20.7997L22.6523 20.9737L22.1322 24.3794L22.1087 24.5044C22.1024 24.5439 22.0917 24.5637 22.076 24.577C22.0619 24.5892 22.0418 24.5974 22.0221 24.5974H19.4856Z" fill="#28356A"/>
<path fill-rule="evenodd" clip-rule="evenodd" d="M28.3675 12.0996C28.3519 12.2037 28.3338 12.3101 28.3136 12.4194C27.6175 16.1136 25.2358 17.3898 22.1942 17.3898H20.6454C20.2734 17.3898 19.9599 17.6689 19.902 18.0482L18.8845 24.7192C18.8468 24.9683 19.0325 25.1927 19.2756 25.1927H22.0225C22.3477 25.1927 22.624 24.9485 22.6753 24.6169L22.7022 24.4727L23.2194 21.0804L23.2527 20.8944C23.3033 20.5617 23.5802 20.3173 23.9054 20.3173H24.3162C26.9775 20.3173 29.061 19.2006 29.6699 15.9688C29.9241 14.6188 29.7925 13.4915 29.1194 12.6987C28.9158 12.4597 28.6631 12.2612 28.3675 12.0996Z" fill="#298FC2"/>
<path fill-rule="evenodd" clip-rule="evenodd" d="M27.639 11.7993C27.5326 11.7672 27.4229 11.7382 27.3103 11.7119C27.1972 11.6863 27.0813 11.6637 26.962 11.6438C26.5444 11.5741 26.0868 11.541 25.5967 11.541H21.4593C21.3573 11.541 21.2606 11.5648 21.174 11.6078C20.9831 11.7026 20.8414 11.8894 20.8071 12.1179L19.9268 17.88L19.9016 18.048C19.9595 17.6687 20.273 17.3896 20.645 17.3896H22.1937C25.2354 17.3896 27.6171 16.1127 28.3132 12.4192C28.334 12.3099 28.3515 12.2035 28.3671 12.0994C28.191 12.0027 28.0003 11.9201 27.7949 11.8498C27.7441 11.8323 27.6918 11.8155 27.639 11.7993Z" fill="#22284F"/>
<path fill-rule="evenodd" clip-rule="evenodd" d="M20.8073 12.1178C20.8416 11.8893 20.9834 11.7025 21.1743 11.6084C21.2614 11.5652 21.3576 11.5414 21.4596 11.5414H25.5969C26.087 11.5414 26.5446 11.5746 26.9622 11.6444C27.0815 11.6641 27.1974 11.6869 27.3106 11.7125C27.4231 11.7385 27.5328 11.7677 27.6392 11.7996C27.692 11.8159 27.7444 11.8329 27.7956 11.8497C28.001 11.92 28.1919 12.0033 28.368 12.0993C28.5751 10.7341 28.3662 9.80461 27.6522 8.96294C26.8648 8.03621 25.4439 7.63965 23.6256 7.63965H18.3468C17.9754 7.63965 17.6586 7.91874 17.6012 8.29868L15.4025 22.7035C15.3592 22.9884 15.5718 23.2455 15.8499 23.2455H19.1088L20.8073 12.1178Z" fill="#28356A"/>
</svg>
