<svg width="20" height="21" viewBox="0 0 20 21" fill="none" xmlns="http://www.w3.org/2000/svg">
<path d="M19.25 10.4895C19.2507 10.7567 19.18 11.0193 19.0451 11.2501C18.9103 11.4808 18.7163 11.6714 18.4831 11.802L2.74156 20.8029C2.51539 20.9312 2.25999 20.999 2 20.9998C1.76023 20.9993 1.52407 20.9413 1.31132 20.8308C1.09857 20.7202 0.915422 20.5602 0.777234 20.3643C0.639046 20.1684 0.549843 19.9421 0.517102 19.7046C0.484362 19.4671 0.509037 19.2252 0.589061 18.9992L3.15312 11.5039C3.17839 11.4297 3.22624 11.3653 3.28997 11.3198C3.3537 11.2742 3.43009 11.2497 3.50844 11.2498H10.25C10.3528 11.25 10.4546 11.2291 10.549 11.1883C10.6434 11.1476 10.7284 11.0879 10.7987 11.0129C10.869 10.9379 10.9232 10.8492 10.9578 10.7524C10.9925 10.6556 11.0068 10.5527 11 10.4501C10.983 10.2572 10.8938 10.0779 10.7502 9.94807C10.6066 9.81821 10.4192 9.74739 10.2256 9.74979H3.515C3.43677 9.74993 3.36046 9.7256 3.29675 9.68021C3.23303 9.63483 3.18511 9.57065 3.15969 9.49667L0.587186 1.99667C0.487007 1.70928 0.47662 1.39821 0.557405 1.10478C0.63819 0.811346 0.806324 0.54943 1.03948 0.353811C1.27264 0.158191 1.55978 0.0381246 1.86279 0.00955451C2.1658 -0.0190156 2.47032 0.0452628 2.73594 0.193854L18.4859 9.18354C18.7176 9.31398 18.9104 9.50365 19.0447 9.73312C19.1789 9.96259 19.2498 10.2236 19.25 10.4895Z" fill="white"/>
</svg>
