<svg width="72" height="76" viewBox="0 0 72 76" fill="none" xmlns="http://www.w3.org/2000/svg">
<g filter="url(#filter0_d_66_5923)">
<path d="M56 28C56 16.9543 47.0457 8 36 8C24.9543 8 16 16.9543 16 28C16 37.9548 23.273 46.211 32.7952 47.7446L36 52L39.2048 47.7446C48.727 46.211 56 37.9548 56 28Z" fill="#029FEB"/>
<path d="M33.3751 18.375C33.3751 17.8558 33.529 17.3483 33.8175 16.9166C34.1059 16.485 34.5159 16.1485 34.9955 15.9498C35.4752 15.7511 36.003 15.6992 36.5122 15.8004C37.0214 15.9017 37.4891 16.1517 37.8562 16.5188C38.2233 16.886 38.4734 17.3537 38.5746 17.8629C38.6759 18.3721 38.6239 18.8999 38.4253 19.3795C38.2266 19.8592 37.8901 20.2692 37.4585 20.5576C37.0268 20.846 36.5193 21 36.0001 21C35.3039 21 34.6362 20.7234 34.1439 20.2312C33.6516 19.7389 33.3751 19.0712 33.3751 18.375ZM44.1957 28.1981L39.9535 23.3888C39.7072 23.1094 39.4042 22.8857 39.0648 22.7325C38.7254 22.5793 38.3572 22.5 37.9848 22.5H34.0154C33.643 22.5 33.2748 22.5793 32.9354 22.7325C32.5959 22.8857 32.293 23.1094 32.0466 23.3888L27.8045 28.1981C27.529 28.48 27.3755 28.8589 27.3772 29.253C27.3789 29.6471 27.5356 30.0247 27.8135 30.3042C28.0914 30.5836 28.4681 30.7425 28.8621 30.7465C29.2562 30.7504 29.636 30.5992 29.9195 30.3253L32.3438 28.3781L30.497 35.3981C30.3363 35.7588 30.3243 36.1684 30.4637 36.5378C30.603 36.9073 30.8825 37.2069 31.2413 37.3717C31.6002 37.5364 32.0096 37.553 32.3806 37.4179C32.7516 37.2827 33.0544 37.0067 33.2232 36.6497L36.0001 31.875L38.7732 36.6563C38.942 37.0132 39.2448 37.2893 39.6158 37.4244C39.9868 37.5596 40.3962 37.543 40.7551 37.3783C41.1139 37.2135 41.3934 36.9139 41.5327 36.5444C41.6721 36.1749 41.6601 35.7654 41.4995 35.4047L39.6563 28.3781L42.0845 30.3253C42.3679 30.5992 42.7477 30.7504 43.1418 30.7465C43.5358 30.7425 43.9125 30.5836 44.1904 30.3042C44.4683 30.0247 44.625 29.6471 44.6267 29.253C44.6284 28.8589 44.4749 28.48 44.1995 28.1981H44.1957Z" fill="white"/>
</g>
<defs>
<filter id="filter0_d_66_5923" x="0" y="0" width="72" height="76" filterUnits="userSpaceOnUse" color-interpolation-filters="sRGB">
<feFlood flood-opacity="0" result="BackgroundImageFix"/>
<feColorMatrix in="SourceAlpha" type="matrix" values="0 0 0 0 0 0 0 0 0 0 0 0 0 0 0 0 0 0 127 0" result="hardAlpha"/>
<feOffset dy="8"/>
<feGaussianBlur stdDeviation="8"/>
<feComposite in2="hardAlpha" operator="out"/>
<feColorMatrix type="matrix" values="0 0 0 0 0.00784314 0 0 0 0 0.623529 0 0 0 0 0.921569 0 0 0 0.24 0"/>
<feBlend mode="normal" in2="BackgroundImageFix" result="effect1_dropShadow_66_5923"/>
<feBlend mode="normal" in="SourceGraphic" in2="effect1_dropShadow_66_5923" result="shape"/>
</filter>
</defs>
</svg>
