<svg width="12" height="13" viewBox="0 0 12 13" fill="none" xmlns="http://www.w3.org/2000/svg">
<g id="Person">
<path id="Vector" d="M4.68742 2.1875C4.68742 1.92791 4.76439 1.67415 4.90861 1.45831C5.05283 1.24248 5.25782 1.07425 5.49765 0.974909C5.73747 0.875569 6.00137 0.849577 6.25597 0.90022C6.51057 0.950863 6.74444 1.07587 6.928 1.25942C7.11155 1.44298 7.23655 1.67684 7.2872 1.93144C7.33784 2.18604 7.31185 2.44994 7.21251 2.68977C7.11317 2.9296 6.94494 3.13459 6.7291 3.2788C6.51326 3.42302 6.25951 3.5 5.99992 3.5C5.65182 3.5 5.31798 3.36172 5.07184 3.11558C4.8257 2.86944 4.68742 2.5356 4.68742 2.1875ZM10.0977 7.09906L7.97664 4.69438C7.85347 4.55472 7.702 4.44286 7.53227 4.36624C7.36255 4.28963 7.17847 4.25 6.99226 4.25H5.00757C4.82136 4.25 4.63728 4.28963 4.46756 4.36624C4.29784 4.44286 4.14636 4.55472 4.0232 4.69438L1.9021 7.09906C1.76437 7.23999 1.68764 7.42945 1.68848 7.6265C1.68933 7.82355 1.76769 8.01235 1.90663 8.15209C2.04556 8.29182 2.23391 8.37127 2.43095 8.37324C2.62799 8.37522 2.81789 8.29958 2.9596 8.16266L4.17179 7.18906L3.24835 10.6991C3.16801 10.8794 3.16204 11.0842 3.23171 11.2689C3.30139 11.4537 3.44111 11.6035 3.62055 11.6858C3.79998 11.7682 4.00467 11.7765 4.19018 11.7089C4.3757 11.6414 4.52708 11.5033 4.61148 11.3248L5.99992 8.9375L7.38648 11.3281C7.47088 11.5066 7.62226 11.6446 7.80778 11.7122C7.99329 11.7798 8.19798 11.7715 8.37741 11.6891C8.55685 11.6068 8.69657 11.4569 8.76625 11.2722C8.83592 11.0875 8.82995 10.8827 8.7496 10.7023L7.82804 7.18906L9.0421 8.16266C9.18382 8.29958 9.37372 8.37522 9.57076 8.37324C9.7678 8.37127 9.95615 8.29182 10.0951 8.15209C10.234 8.01235 10.3124 7.82355 10.3132 7.6265C10.3141 7.42945 10.2373 7.23999 10.0996 7.09906H10.0977Z" fill="white"/>
</g>
</svg>
