<svg width="80" height="80" viewBox="0 0 80 80" fill="none" xmlns="http://www.w3.org/2000/svg">
<g id="Role Icons">
<g id="Vector">
<path d="M38.75 22.5C43.5825 22.5 47.5 18.5825 47.5 13.75C47.5 8.91751 43.5825 5 38.75 5C33.9175 5 30 8.91751 30 13.75C30 18.5825 33.9175 22.5 38.75 22.5Z" fill="#1F2937"/>
<path d="M46.0455 75H45.1621C44.5271 75.0001 43.9149 74.767 43.4455 74.3463C42.9761 73.9256 42.6833 73.3476 42.6245 72.7256L40.5379 50.6583H37.385L35.2984 72.7256C35.2396 73.3476 34.9468 73.9256 34.4774 74.3463C34.008 74.767 33.3959 75.0001 32.7609 75H31.8774C31.2016 75 30.5535 74.7359 30.0756 74.2657C29.5977 73.7956 29.3292 73.1579 29.3292 72.493L29.2265 37.3201C29.223 36.7232 29.002 36.1474 28.6037 35.6971C28.2055 35.2468 27.6563 34.9518 27.056 34.8658C23.7097 34.364 20.6559 32.7022 18.4452 30.1803C16.2346 27.6584 15.0127 24.4424 15 21.1122V15.007C15 14.3421 15.2685 13.7044 15.7463 13.2343C16.2242 12.7641 16.8724 12.5 17.5482 12.5H19.5867C20.2626 12.5 20.9107 12.7641 21.3886 13.2343C21.8665 13.7044 22.1349 14.3421 22.1349 15.007V21.1122C22.135 22.9429 22.8742 24.6986 24.19 25.9931C25.5058 27.2875 27.2904 28.0147 29.1512 28.0147H50.8493C54.6023 28.0148 58.2016 29.4816 60.8553 32.0925C63.5091 34.7034 65 38.2445 65 41.9368V50.5484H57.8651V41.9368C57.8651 41.0304 57.6836 40.1328 57.3311 39.2954C56.9785 38.4579 56.4618 37.697 55.8103 37.0561C55.1589 36.4151 54.3855 35.9067 53.5343 35.5598C52.6831 35.2129 51.7708 35.0344 50.8495 35.0343C50.5532 35.0343 50.2599 35.0917 49.9862 35.2032C49.7125 35.3148 49.4638 35.4782 49.2543 35.6843C49.0449 35.8904 48.8787 36.1351 48.7653 36.4043C48.652 36.6736 48.5936 36.9622 48.5937 37.2536V72.493C48.5937 73.1579 48.3252 73.7956 47.8473 74.2657C47.3695 74.7359 46.7213 75 46.0455 75Z" fill="#1F2937"/>
<path d="M64.8215 55H55.1785C53.6992 55 52.5 56.1918 52.5 57.662V72.338C52.5 73.8082 53.6992 75 55.1785 75H64.8215C66.3008 75 67.5 73.8082 67.5 72.338V57.662C67.5 56.1918 66.3008 55 64.8215 55Z" fill="#1F2937"/>
</g>
</g>
</svg>
