<svg width="49" height="48" viewBox="0 0 49 48" fill="none" xmlns="http://www.w3.org/2000/svg">
<g id="Brand logos">
<path id="Vector" d="M10.469 28.4579C12.2672 28.4579 13.6576 27.0672 13.6576 25.0093V17H15.6039V29.9781H13.6762V28.773C12.8049 29.6813 11.6 30.2004 10.2464 30.2004C7.46536 30.2004 5.33325 28.1796 5.33325 25.1218V17.0021H7.27955V25.0093C7.27955 27.1043 8.65138 28.4579 10.4684 28.4579" fill="black"/>
<path id="Vector_2" d="M17.0506 17.0005H18.923V21.7282C19.3597 21.2809 19.8816 20.9257 20.458 20.6836C21.0344 20.4416 21.6534 20.3175 22.2785 20.3189C25.0596 20.3189 27.2471 22.5252 27.2471 25.2692C27.2471 27.9946 25.0596 30.2006 22.2785 30.2006C21.6504 30.2023 21.0283 30.0786 20.4486 29.8366C19.869 29.5947 19.3434 29.2394 18.9029 28.7917V29.9777H17.0479L17.0506 17.0005ZM22.149 28.5508C23.9289 28.5508 25.3935 27.086 25.3935 25.2692C25.3935 23.4336 23.9289 21.9876 22.149 21.9876C20.3505 21.9876 18.8859 23.4336 18.8859 25.2692C18.8859 27.086 20.3319 28.5508 22.149 28.5508Z" fill="black"/>
<path id="Vector_3" d="M32.8467 20.3374C35.5718 20.3374 37.5744 22.4324 37.5744 25.2506V25.8625H29.8814C30.1411 27.4012 31.4202 28.5508 33.0137 28.5508C34.1085 28.5508 35.0348 28.1056 35.7391 27.1601L37.0927 28.1612C36.1469 29.422 34.738 30.182 33.0137 30.182C30.1773 30.182 27.9895 28.0685 27.9895 25.2506C27.9895 22.5808 30.0845 20.3374 32.847 20.3374M29.9175 24.3793H35.6835C35.3684 22.933 34.2003 21.9689 32.8099 21.9689C31.4195 21.9689 30.2515 22.933 29.9175 24.3793Z" fill="black"/>
<path id="Vector_4" d="M42.5986 22.1912C41.3748 22.1912 40.485 23.1366 40.485 24.6012V29.9779H38.6123V20.5225H40.4674V21.6915C40.9308 20.9312 41.6911 20.4492 42.7293 20.4492H43.378V22.1921L42.5986 22.1912Z" fill="black"/>
</g>
</svg>
